/* XPM */
static char * exit_xpm[] = {
"64 64 392 2",
"  	c #010101",
". 	c #020202",
"+ 	c #6B2808",
"@ 	c #6F2304",
"# 	c #551B03",
"$ 	c #020105",
"% 	c #020100",
"& 	c #652401",
"* 	c #642203",
"= 	c #4D1A02",
"- 	c #030000",
"; 	c #000203",
"> 	c #6B2401",
", 	c #652100",
"' 	c #4D1900",
") 	c #662100",
"! 	c #4E1900",
"~ 	c #000102",
"{ 	c #010305",
"] 	c #020504",
"^ 	c #030401",
"/ 	c #030201",
"( 	c #000401",
"_ 	c #6F2300",
": 	c #010201",
"< 	c #0D0201",
"[ 	c #160503",
"} 	c #130603",
"| 	c #150604",
"1 	c #140603",
"2 	c #682103",
"3 	c #020101",
"4 	c #1E0B05",
"5 	c #662202",
"6 	c #000206",
"7 	c #090001",
"8 	c #070003",
"9 	c #030003",
"0 	c #040106",
"a 	c #220D03",
"b 	c #642007",
"c 	c #642108",
"d 	c #581D09",
"e 	c #621F05",
"f 	c #622400",
"g 	c #6A2102",
"h 	c #602200",
"i 	c #59240A",
"j 	c #4D1A06",
"k 	c #040402",
"l 	c #6B1F04",
"m 	c #622206",
"n 	c #642205",
"o 	c #5F2107",
"p 	c #471609",
"q 	c #040201",
"r 	c #050101",
"s 	c #0C0502",
"t 	c #5E2400",
"u 	c #692203",
"v 	c #622204",
"w 	c #6C1F00",
"x 	c #010301",
"y 	c #040100",
"z 	c #010003",
"A 	c #672500",
"B 	c #682100",
"C 	c #642202",
"D 	c #481609",
"E 	c #010100",
"F 	c #0C0302",
"G 	c #691F05",
"H 	c #642201",
"I 	c #662200",
"J 	c #000003",
"K 	c #682500",
"L 	c #0B0302",
"M 	c #672200",
"N 	c #030103",
"O 	c #662400",
"P 	c #662000",
"Q 	c #642000",
"R 	c #622102",
"S 	c #140304",
"T 	c #6E2300",
"U 	c #6B2607",
"V 	c #000002",
"W 	c #000001",
"X 	c #000000",
"Y 	c #130304",
"Z 	c #642307",
"` 	c #000101",
" .	c #030106",
"..	c #070208",
"+.	c #090206",
"@.	c #060300",
"#.	c #060302",
"$.	c #0F0703",
"%.	c #652106",
"&.	c #652006",
"*.	c #612108",
"=.	c #000201",
"-.	c #000300",
";.	c #040101",
">.	c #060201",
",.	c #0D0703",
"'.	c #682207",
").	c #5F2105",
"!.	c #661F01",
"~.	c #000302",
"{.	c #030101",
"].	c #3F0003",
"^.	c #FF030C",
"/.	c #FF0005",
"(.	c #FF0105",
"_.	c #5C2805",
":.	c #6A2505",
"<.	c #72220B",
"[.	c #55200C",
"}.	c #000004",
"|.	c #070000",
"1.	c #030202",
"2.	c #020104",
"3.	c #250C07",
"4.	c #682606",
"5.	c #55210D",
"6.	c #030002",
"7.	c #280203",
"8.	c #FE0000",
"9.	c #FB0100",
"0.	c #592400",
"a.	c #512001",
"b.	c #1D0B05",
"c.	c #5C1F05",
"d.	c #010400",
"e.	c #270203",
"f.	c #FD0000",
"g.	c #522002",
"h.	c #340206",
"i.	c #280002",
"j.	c #270002",
"k.	c #290002",
"l.	c #600104",
"m.	c #FE0203",
"n.	c #FC0300",
"o.	c #DA0806",
"p.	c #E50506",
"q.	c #E30506",
"r.	c #752002",
"s.	c #7E1D02",
"t.	c #7D2001",
"u.	c #681909",
"v.	c #3A0104",
"w.	c #020501",
"x.	c #040104",
"y.	c #040003",
"z.	c #180603",
"A.	c #0F0804",
"B.	c #2B0C04",
"C.	c #561B09",
"D.	c #521D08",
"E.	c #381A13",
"F.	c #030104",
"G.	c #FF0008",
"H.	c #FD0400",
"I.	c #FF0100",
"J.	c #FB0300",
"K.	c #592600",
"L.	c #662204",
"M.	c #682104",
"N.	c #F90200",
"O.	c #FA0202",
"P.	c #FD0103",
"Q.	c #F90403",
"R.	c #010200",
"S.	c #010204",
"T.	c #030100",
"U.	c #662203",
"V.	c #642001",
"W.	c #441A0B",
"X.	c #070300",
"Y.	c #050300",
"Z.	c #000200",
"`.	c #FF0203",
" +	c #5C2500",
".+	c #692000",
"++	c #FF0000",
"@+	c #FF0102",
"#+	c #000202",
"$+	c #000100",
"%+	c #6C2402",
"&+	c #F70300",
"*+	c #612300",
"=+	c #672101",
"-+	c #6A2001",
";+	c #FD0001",
">+	c #FC0406",
",+	c #FD0006",
"'+	c #FF0103",
")+	c #010602",
"!+	c #020107",
"~+	c #030600",
"{+	c #682501",
"]+	c #681C04",
"^+	c #431B0E",
"/+	c #070301",
"(+	c #050201",
"_+	c #F80300",
":+	c #642100",
"<+	c #692100",
"[+	c #FC0200",
"}+	c #FC0106",
"|+	c #FF0206",
"1+	c #FF0106",
"2+	c #FB0211",
"3+	c #000501",
"4+	c #672503",
"5+	c #711B09",
"6+	c #411706",
"7+	c #000502",
"8+	c #060106",
"9+	c #040200",
"0+	c #080109",
"a+	c #E10009",
"b+	c #FF0001",
"c+	c #FF0200",
"d+	c #5B2400",
"e+	c #692102",
"f+	c #951903",
"g+	c #FF0202",
"h+	c #FE0001",
"i+	c #FA0200",
"j+	c #931903",
"k+	c #FD0102",
"l+	c #FB0202",
"m+	c #F70502",
"n+	c #F80808",
"o+	c #FE0606",
"p+	c #FE0509",
"q+	c #FB0408",
"r+	c #F90101",
"s+	c #F20300",
"t+	c #D70401",
"u+	c #050203",
"v+	c #090209",
"w+	c #FC0100",
"x+	c #FB0200",
"y+	c #F70201",
"z+	c #04020B",
"A+	c #070105",
"B+	c #050009",
"C+	c #FE0202",
"D+	c #F12E38",
"E+	c #F8FFFF",
"F+	c #FEFFFF",
"G+	c #FBFFFF",
"H+	c #FFFFFF",
"I+	c #FA0000",
"J+	c #1C0200",
"K+	c #FF0306",
"L+	c #FC0201",
"M+	c #FC0001",
"N+	c #F80206",
"O+	c #FA0302",
"P+	c #FF0407",
"Q+	c #000500",
"R+	c #020206",
"S+	c #FE262A",
"T+	c #FEFEFF",
"U+	c #FCFFFD",
"V+	c #FDFFFC",
"W+	c #FE0201",
"X+	c #1C0300",
"Y+	c #FA0100",
"Z+	c #000402",
"`+	c #000301",
" @	c #FF2528",
".@	c #FEFAFB",
"+@	c #FFFAFB",
"@@	c #FCFBF9",
"#@	c #FCFBFA",
"$@	c #FE0705",
"%@	c #FE0504",
"&@	c #FE0403",
"*@	c #5D2400",
"=@	c #682000",
"-@	c #6B2002",
";@	c #941903",
">@	c #FE0101",
",@	c #E32332",
"'@	c #FD9E9E",
")@	c #FEA1A0",
"!@	c #FDA1A0",
"~@	c #F79EA3",
"{@	c #F3A58D",
"]@	c #FE5E5E",
"^@	c #FE5D5F",
"/@	c #FF5B61",
"(@	c #F70100",
"_@	c #A21504",
":@	c #9E1604",
"<@	c #A01703",
"[@	c #C60D02",
"}@	c #FD0202",
"|@	c #F20100",
"1@	c #F80504",
"2@	c #F30104",
"3@	c #FDFEFD",
"4@	c #FDFFFE",
"5@	c #FBF7F4",
"6@	c #F30000",
"7@	c #FE0100",
"8@	c #F80400",
"9@	c #FB0400",
"0@	c #FFFDFE",
"a@	c #FCFAFB",
"b@	c #FB0000",
"c@	c #FE0102",
"d@	c #FD0002",
"e@	c #FF0504",
"f@	c #FC0101",
"g@	c #FB0101",
"h@	c #FB0304",
"i@	c #FC0400",
"j@	c #F80503",
"k@	c #F9010B",
"l@	c #FDFDFC",
"m@	c #FCF7FC",
"n@	c #F10000",
"o@	c #F70305",
"p@	c #FB0205",
"q@	c #FA0402",
"r@	c #FC0306",
"s@	c #DB020E",
"t@	c #E00107",
"u@	c #DF0106",
"v@	c #CD0606",
"w@	c #FE0003",
"x@	c #FB0404",
"y@	c #F20601",
"z@	c #FDDED6",
"A@	c #FCDFD6",
"B@	c #FCDBD4",
"C@	c #EA0000",
"D@	c #F70504",
"E@	c #F92428",
"F@	c #FB2229",
"G@	c #FE2028",
"H@	c #FB2028",
"I@	c #F32128",
"J@	c #FDFFFF",
"K@	c #FEFFFE",
"L@	c #FFFEFF",
"M@	c #FFF9F8",
"N@	c #200505",
"O@	c #F60408",
"P@	c #FA0101",
"Q@	c #FAFEFF",
"R@	c #FCFDFE",
"S@	c #FBFEFE",
"T@	c #FEFCFF",
"U@	c #F8F5FA",
"V@	c #FF0101",
"W@	c #F90400",
"X@	c #00040D",
"Y@	c #000008",
"Z@	c #F80000",
"`@	c #F30500",
" #	c #FCFFFF",
".#	c #FCB8AE",
"+#	c #FC0103",
"@#	c #FD0100",
"##	c #FE0706",
"$#	c #FCFBFB",
"%#	c #FEB4B4",
"&#	c #FBFBFB",
"*#	c #1B0300",
"=#	c #F90000",
"-#	c #FFFAFA",
";#	c #FBF6F6",
">#	c #FEB0B0",
",#	c #F50100",
"'#	c #010604",
")#	c #FE0401",
"!#	c #FA0401",
"~#	c #000304",
"{#	c #0D0302",
"]#	c #A80203",
"^#	c #A50008",
"/#	c #A40007",
"(#	c #9D020A",
"_#	c #A70103",
"                                                                                                      .   + @ @ @ @ @ @ @ @ @ # ",
"                                                                                                      $ % & * * * * * * * * * = ",
"                                                                                                      - ; > , , , , , , , , , ' ",
"                                                                                                      - ; > ) ) ) ) ) ) ) ) ) ! ",
"                                                                                  ~ { ] ^ ^ ^ ^ ^ ^ ^ / ( _ ) ) ) ) ) ) ) ) ) ! ",
"                                                                                  : < [ } } } } } } } | 1 2 ) ) ) ) ) ) ) ) ) ! ",
"                                                                                  3 4 5 ) ) ) ) ) ) ) ) , ) ) ) ) ) ) ) ) ) ) ! ",
"                                                                                  3 4 5 ) ) ) ) ) ) ) ) ) ) ) ) ) ) ) ) ) ) ) ! ",
"                                                                                  3 4 5 ) ) ) ) ) ) ) ) ) ) ) ) ) ) ) ) ) ) ) ! ",
"                                                                                  3 4 5 ) ) ) ) ) ) ) ) ) ) ) ) ) ) ) ) ) ) ) ! ",
"                                                              6 7 8 9 9 9 9 9 9 9 0 a b c c c d e f ) g h i c c c c c c c c c j ",
"                                                              k l m n n n n n n n o p q r r r s t u ) v w x r r r r r r r r r y ",
"                                                              z A B ) ) ) ) ) ) ) C D E       F C G ) H I J                     ",
"                                                              z K B ) ) ) ) ) ) ) C D E       L C G ) H M J                     ",
"                                                              z K B ) ) ) ) ) ) ) C D E       L C G ) H M J                     ",
"                                                      / / / / N O P Q Q Q Q Q Q Q R p E       L C G ) H M J                     ",
"                                                  J S T T T T U V W W W W W W W W W X         L C G ) H M J                     ",
"                                                  J Y ) ) ) ) Z V `                           L C G ) H M J                     ",
"                                                  J Y ) ) ) ) Z V `                           L C G ) H M J                     ",
"                                                  J Y ) ) ) ) Z V `                           L C G ) H M J                     ",
"           ...+.+.+.+.+.+.+.+.+.+.+.+.+.+.@.@.@.@.#.$.%.&.&.&.*.=.%               -.;.>.@.@.@.,.'.).&.o !.~.                    ",
"        {.].^./././././././././././././.(._.:.:.:.<.[.}.J J J |.1.:               2.3.4.:.:.:.5.z J J 6.X 6                     ",
"        {.7.8.8.8.8.8.8.8.8.8.8.8.8.8.8.9.0.) ) ) ) a.                            3 b.5 ) ) ) c.. d.                            ",
"        {.e.f.8.8.8.8.8.8.8.8.8.8.8.8.8.9.0.) ) ) ) g.                            3 4 5 ) ) ) c.. d.                            ",
"        {.e.f.8.8.8.8.8.8.8.8.8.8.8.8.8.9.0.) ) ) ) g.                            3 4 5 ) ) ) c.. d.                            ",
"        {.e.f.8.8.8.8.8.8.8.8.8.8.8.8.8.9.0.) ) ) ) g.                            3 4 5 ) ) ) c.. d.                            ",
"h.i.j.j.k.l.m.8.8.8.8.8.8.8.8.n.o.p.p.p.q.r.s.s.s.t.u.j.j.j.j.v.w.x.  % y.z.} } } A.B.C.D.D.D.E.-.F.                            ",
"G.n.n.n.n.H.I.8.8.8.8.8.8.8.8.J.K.L.L.L.M.I.N.N.N.O.P.n.n.n.n.Q.R.S.  T.( :.U.U.U.V.W.X.Y.Y.Y.3 X Z.                            ",
"`.8.8.8.8.8.8.8.8.8.8.8.8.8.8.9. +) ) ) .+++8.8.8.8.8.8.8.8.8.@+#+$+  -.q %+) ) ) C D E                                         ",
"`.8.8.8.8.8.8.8.8.8.8.8.8.8.8.9. +) ) ) .+++8.8.8.8.8.8.8.8.8.@+#+$+  -.q %+) ) ) C D E                                         ",
"`.8.8.8.8.8.8.8.8.8.8.8.8.8.8.&+*+=+=+=+-+++8.8.8.;+>+,+,+,+,+'+)+!+`   ~+{+) ) ) ]+^+^ ` ` ` ` ` ` ` /+(+z                     ",
"`.8.8.8.8.8.8.8.8.8.8.8.8.8.8._+:+M M M <+++8.8.8.[+}+|+1+1+1+2+3+6 ; . 8 4+) ) ) 5+6+7+; ; ; ; ; ; ; 8+9+0+                    ",
"`.8.8.8.8.8.8.8.8.8.8.8.8.8.8.++++++++++++8.8.8.8.8.a+` ` ` ` $+`.b+++++c+d+) ) ) e+f+@+++++++++++++++b+g+Z.                    ",
"`.8.8.8.8.8.8.8.8.8.8.8.8.8.8.8.8.8.8.8.8.8.8.8.8.8.a+        $+`.h+8.++i+d+) ) ) e+j+k+8.8.8.8.8.8.8.;+l+Z.                    ",
"`.8.8.8.8.8.8.8.8.8.8.8.8.8.8.8.8.8.8.8.8.8.8.8.8.8.a+        $+`.h+8.++i+d+) ) ) e+j+k+8.8.8.8.8.8.8.;+l+Z.                    ",
"`.8.8.8.8.8.8.8.8.8.8.8.8.8.8.8.8.8.8.8.8.8.8.8.8.8.a+        $+`.h+8.++i+d+) ) ) e+j+k+8.8.8.8.8.8.8.;+l+Z.                    ",
"`.8.8.8.8.m+n+o+o+p+q+++8.8.8.8.8.8.8.8.8.r+r+r+r+s+t+u+u+u+u+v+c+w+8.++i+d+) ) ) e+j+k+8.8.8.8.8.8.8.x+y+z+u+u+u+A+B+A+        ",
"`.8.8.8.C+D+E+F+F+G+H+@+8.8.8.8.8.8.8.8.I+` ` ` ` ~.J+'+`.`.`.K+L+M+8.++i+d+) ) ) e+j+k+8.8.8.8.8.8.8.N+O+P+`.`.`.g+Q+R+        ",
"`.8.8.8.C+S+T+H+H+U+V+W+8.8.8.8.8.8.8.8.I+`       =.X+8.8.8.8.8.8.8.8.++i+d+) ) ) e+j+k+8.8.8.8.8.8.8.8.8.8.8.8.8.Y+Z+`+        ",
"`.8.8.8.C+S+T+H+H+U+V+W+8.8.8.8.8.8.8.8.I+`       =.X+8.8.8.8.8.8.8.8.++i+d+) ) ) e+j+k+8.8.8.8.8.8.8.8.8.8.8.8.8.Y+Z+`+        ",
"`.8.8.8.C+S+T+H+H+U+V+W+8.8.8.8.8.8.8.8.I+`       =.X+8.8.8.8.8.8.8.8.++i+d+) ) ) e+j+k+8.8.8.8.8.8.8.8.8.8.8.8.8.Y+Z+`+        ",
"`.8.8.8.C+ @.@+@+@@@#@$@%@%@%@&@8.8.8.8.I+`       =.X+8.8.8.8.8.8.8.8.++i+*@=@=@=@-@;@k+8.8.8.8.8.8.8.8.8.8.8.8.8.Y+Z+`+        ",
"`.8.8.8.>@,@'@)@!@~@{@]@^@^@^@/@(@8.8.8.I+`       =.X+8.8.8.8.8.8.8.8.8.@+_@:@:@:@<@[@8.8.8.8.8.8.8.8.8.8.8.8.8.8.Y+Z+`+        ",
"`.8.8.8.8.}@|@h+h+1@2@3@4@4@4@5@6@8.8.8.I+`       =.X+8.8.8.8.8.8.8.8.8.L+7@7@7@7@8@9@W+8.8.8.8.8.8.8.8.8.8.8.8.8.Y+Z+`+        ",
"`.8.8.8.8.++8.8.8.>@h+0@H+H+H+a@b@8.8.8.I+`       =.X+8.8.8.8.8.8.8.8.++8.8.8.8.8.8.8.8.8.8.8.8.8.8.8.8.8.8.8.8.8.Y+Z+`+        ",
"`.8.8.8.8.8.8.8.8.c@d@0@H+H+H+a@b@8.8.8.I+`       =.X+8.8.8.8.8.8.8.8.8.8.8.8.8.8.8.8.8.8.8.8.8.8.8.8.8.8.8.8.8.8.Y+Z+`+        ",
"e@f@g@g@g@h@i@++8.j@k@l@3@3@3@m@n@8.8.8.I+`       =.X+8.8.8.8.o@p@q@}@k+r@h+8.8.8.8.8.8.8.8.8.8.8.8.8.8.8.8.8.8.8.Y+Z+`+        ",
"s@t@u@u@u@v@w@++8.x@y@z@A@A@A@B@C@8.8.8.I+`       =.X+8.8.8.8.D@E@F@G@H@I@I+8.8.8.8.8.8.8.8.8.8.8.8.8.8.8.8.8.8.8.Y+Z+`+        ",
"E       {.7.f.8.8.8.8.8.8.8.8.8.8.8.8.8.I+`       =.X+8.8.8.8.8.J@K@H+L@M@8.8.8.8.8.8.8.8.8.8.8.8.8.8.8.8.8.8.8.8.Y+Z+`+        ",
"        {.e.f.8.8.8.8.8.8.8.8.8.8.8.8.8.I+`       =.X+8.8.8.8.f.J@K@H+L@M@8.8.8.8.8.8.8.8.8.8.8.8.8.8.8.8.8.8.8.8.Y+Z+`+        ",
"        {.e.f.8.8.8.8.8.8.8.8.8.8.8.8.8.I+`       =.X+8.8.8.8.f.J@K@H+L@M@8.8.8.8.8.8.8.8.8.8.8.8.8.8.8.8.8.8.8.8.Y+Z+`+        ",
"        {.e.f.8.8.8.8.8.8.8.8.8.8.8.8.8.I+`       =.X+8.8.8.8.f.J@K@H+L@M@8.8.8.8.8.8.8.8.8.8.8.8.8.8.8.8.8.8.8.8.Y+Z+`+        ",
"        {.N@O@>@>@>@>@>@>@>@>@>@>@>@>@>@P@`       =.X+8.8.8.8.b@Q@R@S@T@U@V@V@V@V@W@N.8.8.8.8.8.8.8.8.8.8.8.8.8.8.Y+Z+`+        ",
"          X@Y@6 6 6 6 6 6 6 6 6 6 6 6 6 6         =.X+8.8.8.8.,+I+Z@I+I+`@F+ # # # #.#+#8.8.8.8.8.8.8.8.8.8.8.8.8.Y+Z+`+        ",
"                                                  =.X+8.8.8.8.++8.8.8.@###H+H+H+H+$#%#8.8.8.8.8.8.8.8.8.8.8.8.8.8.Y+Z+`+        ",
"                                                  =.X+8.8.8.8.8.8.8.8.@###H+H+H+H+&#%#8.8.8.8.8.8.8.8.8.8.8.8.8.8.Y+Z+`+        ",
"                                                  =.X+8.8.8.8.8.8.8.8.@###H+H+H+H+&#%#8.8.8.8.8.8.8.8.8.8.8.8.8.8.Y+Z+`+        ",
"                                                  =.*#=#=#=#=#=#8.8.8.@###-#-#-#-#;#>#8.8.8.8.8.8.8.8.8.8.=#=#=#=#,#Z+`+        ",
"                                                    ` ` ` ` ` $+`.h+8.8.8.8.8.8.8.8.8.8.8.8.8.8.8.8.8.;+l+Z.` ` ` `             ",
"                                                              $+`.h+8.8.8.8.8.8.8.8.8.8.8.8.8.8.8.8.8.;+l+Z.                    ",
"                                                              $+`.h+8.8.8.8.8.8.8.8.8.8.8.8.8.8.8.8.8.;+l+Z.                    ",
"                                                              $+`.h+8.8.8.8.8.8.8.8.8.8.8.8.8.8.8.8.8.;+l+Z.                    ",
"                                                              '#)#h+h+h+h+h+h+h+h+h+h+h+h+h+h+h+h+h+h+b@!#~#                    ",
"                                                              {#]#^#/#/#/#/#/#/#/#/#/#/#/#/#/#/#/#/#/#(#_#~                     "};
