/* XPM */
static char *b999952b55214869c3c4f0c75547b0c65o1Hn80AT6xYIKHt[] = {
/* columns rows colors chars-per-pixel */
"64 64 41 1 ",
"  c black",
". c #010100",
"X c #1B1900",
"o c #A59700",
"O c #A19400",
"+ c #A29400",
"@ c #020200",
"# c #2D2900",
"$ c #FFFC00",
"% c #FFF700",
"& c #2A2700",
"* c #FFEB00",
"= c #FBE600",
"- c #FCE700",
"; c #030200",
": c #030300",
"> c #050500",
", c #2D2A00",
"< c #FFEE00",
"1 c #FEE900",
"2 c #FFEA00",
"3 c #1F1D00",
"4 c #FFEF00",
"5 c #9F9200",
"6 c #C2B200",
"7 c #B9AA00",
"8 c #BBAC00",
"9 c #B8A900",
"0 c #C6B600",
"q c #E6D300",
"w c yellow",
"e c #FFF500",
"r c #FFF800",
"t c #D7C500",
"y c #FAE500",
"u c #FCE800",
"i c #D9C700",
"p c #FFF200",
"a c #FDE800",
"s c #F9E500",
"d c white",
/* pixels */
"                 . XoO++++++++++++++++++++OoX .                 ",
"                 @ #$%%%%%%%%%%%%%%%%%%%%%%$# @                 ",
"                 @ &*=--------------------=*& @                 ",
"          ;::::::> ,<1222222222222222222221<, >::::::;          ",
"                   34122222222222222222222143                   ",
"          5678888890*2222222222222222222222*0988888765          ",
"          qwe%%%%%re222222222222222222222222er%%%%%ewq          ",
"       .  t4y------u222222222222222222222222u------y4t  .       ",
"          ipa22222222222222222222222222222222222222api          ",
"          ipa22222222222222222222222222222222222222api          ",
"   ; 5qtiis*2222222222222222222222222222222222222222*siitq5 ;   ",
"   : 6w4pp*222222222222222222222222222222222222222222*pp4w6 :   ",
"   : 7eyaa22222222222222222222222222222222222222222222aaye7 :   ",
"   : 8%-222222222222222222222222222222222222222222222222-%8 :   ",
"   : 8%-222222222222222222222222222222222222222222222222-%8 :   ",
"   : 8%-222222222222222222222222222222222222222222222222-%8 :   ",
"   : 8%-222222222222222222222222222222222222222222222222-%8 :   ",
".@@> 8%-222222222222222222222222222222222222222222222222-%8 >@@.",
"     9r-222222222222222222222222222222222222222222222222-r9     ",
"X#&,30eu222222222222222222222222222222222222222222222222ue03,&#X",
"o$*<4*2222222222222222222222222222222222222222222222222222*4<*$o",
"O%=1122222222222222222222222222222222222222222222222222222211=%O",
"+%-2222222222222222222222222222222222222222222222222222222222-%+",
"+%-2222222222222222222222222222222222222222222222222222222222-%+",
"+%-2222222222222222222222222222222222222222222222222222222222-%+",
"+%-2222222222222222222222222222222222222222222222222222222222-%+",
"+%-2222222222222222222222222222222222222222222222222222222222-%+",
"+%-2222222222222222222222222222222222222222222222222222222222-%+",
"+%-2222222222222222222222222222222222222222222222222222222222-%+",
"+%-2222222222222222222222222222222222222222222222222222222222-%+",
"+%-2222222222222222222222222222222222222222222222222222222222-%+",
"+%-2222222222222222222222222222222222222222222222222222222222-%+",
"+%-2222222222222222222222222222222222222222222222222222222222-%+",
"+%-2222222222222222222222222222222222222222222222222222222222-%+",
"+%-2222222222222222222222222222222222222222222222222222222222-%+",
"+%-2222222222222222222222222222222222222222222222222222222222-%+",
"+%-2222222222222222222222222222222222222222222222222222222222-%+",
"+%-2222222222222222222222222222222222222222222222222222222222-%+",
"+%-2222222222222222222222222222222222222222222222222222222222-%+",
"+%-2222222222222222222222222222222222222222222222222222222222-%+",
"+%-2222222222222222222222222222222222222222222222222222222222-%+",
"+%-2222222222222222222222222222222222222222222222222222222222-%+",
"O%=1122222222222222222222222222222222222222222222222222222211=%O",
"o$*<4*2222222222222222222222222222222222222222222222222222*4<*$o",
"X#&,30eu222222222222222222222222222222222222222222222222ue03,&#X",
"     9r-222222222222222222222222222222222222222222222222-r9     ",
".@@> 8%-222222222222222222222222222222222222222222222222-%8 >@@.",
"   : 8%-222222222222222222222222222222222222222222222222-%8 :   ",
"   : 8%-222222222222222222222222222222222222222222222222-%8 :   ",
"   : 8%-222222222222222222222222222222222222222222222222-%8 :   ",
"   : 8%-222222222222222222222222222222222222222222222222-%8 :   ",
"   : 7eyaa22222222222222222222222222222222222222222222aaye7 :   ",
"   : 6w4pp*222222222222222222222222222222222222222222*pp4w6 :   ",
"   ; 5qtiis*2222222222222222222222222222222222222222*siitq5 ;   ",
"          ipa22222222222222222222222222222222222222api          ",
"          ipa22222222222222222222222222222222222222api          ",
"       .  t4y------u222222222222222222222222u------y4t  .       ",
"          qwe%%%%%re222222222222222222222222er%%%%%ewq          ",
"          5678888890*2222222222222222222222*0988888765          ",
"                   34122222222222222222222143                   ",
"          ;::::::> ,<1222222222222222222221<, >::::::;          ",
"                 @ &*=--------------------=*& @                 ",
"                 @ #$%%%%%%%%%%%%%%%%%%%%%%$# @                 ",
"                 . XoO++++++++++++++++++++OoX .                 "
};
