/* XPM */
static char * wall_xpm[] = {
"64 64 2 1",
" 	c #1D1D85",
".	c #000000",
"                                                                ",
"                                                                ",
"                                                                ",
"                                                                ",
"    ........................................................    ",
"    .                                                      .    ",
"    . .................................................... .    ",
"    . .................................................... .    ",
"    . .................................................... .    ",
"    . .................................................... .    ",
"    . .................................................... .    ",
"    . .................................................... .    ",
"    . .................................................... .    ",
"    . .................................................... .    ",
"    . .................................................... .    ",
"    . .................................................... .    ",
"    . .................................................... .    ",
"    . .................................................... .    ",
"    . .................................................... .    ",
"    . .................................................... .    ",
"    . .................................................... .    ",
"    . .................................................... .    ",
"    . .................................................... .    ",
"    . .................................................... .    ",
"    . .................................................... .    ",
"    . .................................................... .    ",
"    . .................................................... .    ",
"    . .................................................... .    ",
"    . .................................................... .    ",
"    . .................................................... .    ",
"    . .................................................... .    ",
"    . .................................................... .    ",
"    . .................................................... .    ",
"    . .................................................... .    ",
"    . .................................................... .    ",
"    . .................................................... .    ",
"    . .................................................... .    ",
"    . .................................................... .    ",
"    . .................................................... .    ",
"    . .................................................... .    ",
"    . .................................................... .    ",
"    . .................................................... .    ",
"    . .................................................... .    ",
"    . .................................................... .    ",
"    . .................................................... .    ",
"    . .................................................... .    ",
"    . .................................................... .    ",
"    . .................................................... .    ",
"    . .................................................... .    ",
"    . .................................................... .    ",
"    . .................................................... .    ",
"    . .................................................... .    ",
"    . .................................................... .    ",
"    . .................................................... .    ",
"    . .................................................... .    ",
"    . .................................................... .    ",
"    . .................................................... .    ",
"    . .................................................... .    ",
"    .                                                      .    ",
"    ........................................................    ",
"                                                                ",
"                                                                ",
"                                                                ",
"                                                                "};
